<svg width="64" height="64" viewBox="0 0 64 64" fill="none" xmlns="http://www.w3.org/2000/svg">
<path d="M47.768 13.4119L32 29.1799L16.232 13.4119C15.8528 13.0649 15.3543 12.8776 14.8403 12.889C14.3264 12.9003 13.8367 13.1096 13.4732 13.4731C13.1097 13.8366 12.9004 14.3263 12.889 14.8402C12.8777 15.3542 13.065 15.8527 13.412 16.2319L29.172 31.9999L13.408 47.7639C13.2155 47.9475 13.0615 48.1677 12.9552 48.4116C12.849 48.6555 12.7925 48.9181 12.7892 49.1842C12.7859 49.4502 12.8358 49.7142 12.936 49.9606C13.0362 50.2071 13.1847 50.431 13.3727 50.6193C13.5607 50.8075 13.7844 50.9563 14.0307 51.0568C14.277 51.1574 14.5409 51.2077 14.807 51.2048C15.073 51.2018 15.3357 51.1458 15.5798 51.0398C15.8238 50.9339 16.0442 50.7803 16.228 50.5879L32 34.8239L47.768 50.5919C48.1473 50.939 48.6458 51.1263 49.1597 51.1149C49.6737 51.1036 50.1634 50.8943 50.5269 50.5308C50.8904 50.1673 51.0997 49.6776 51.111 49.1636C51.1224 48.6497 50.9351 48.1512 50.588 47.7719L34.82 32.0039L50.588 16.2319C50.7806 16.0484 50.9346 15.8282 51.0409 15.5843C51.1471 15.3404 51.2036 15.0778 51.2069 14.8117C51.2102 14.5457 51.1602 14.2817 51.06 14.0353C50.9598 13.7888 50.8114 13.5649 50.6234 13.3766C50.4354 13.1884 50.2117 13.0396 49.9654 12.9391C49.7191 12.8385 49.4552 12.7882 49.1891 12.7911C48.9231 12.7941 48.6603 12.8501 48.4163 12.956C48.1723 13.062 47.9519 13.2156 47.768 13.4079V13.4119Z" fill="white"/>
</svg>
