<svg width="36" height="36" viewBox="0 0 36 36" fill="none" xmlns="http://www.w3.org/2000/svg">
<path d="M12.9375 18C12.9375 18.3107 12.6857 18.5625 12.375 18.5625C12.0643 18.5625 11.8125 18.3107 11.8125 18C11.8125 17.6893 12.0643 17.4375 12.375 17.4375C12.6857 17.4375 12.9375 17.6893 12.9375 18ZM12.9375 18H12.375M18.5625 18C18.5625 18.3107 18.3107 18.5625 18 18.5625C17.6893 18.5625 17.4375 18.3107 17.4375 18C17.4375 17.6893 17.6893 17.4375 18 17.4375C18.3107 17.4375 18.5625 17.6893 18.5625 18ZM18.5625 18H18M24.1875 18C24.1875 18.3107 23.9357 18.5625 23.625 18.5625C23.3143 18.5625 23.0625 18.3107 23.0625 18C23.0625 17.6893 23.3143 17.4375 23.625 17.4375C23.9357 17.4375 24.1875 17.6893 24.1875 18ZM24.1875 18H23.625M31.5 18C31.5 24.8345 25.4558 30.375 18 30.375C16.6688 30.375 15.3826 30.1984 14.1678 29.8693C12.7052 30.8968 10.923 31.5 9 31.5C8.70117 31.5 8.40564 31.4854 8.1145 31.457C7.875 31.4337 7.6377 31.4008 7.40369 31.359C8.12898 30.5029 8.64415 29.464 8.87083 28.3212C9.0068 27.6357 8.67106 26.9698 8.17026 26.4824C5.89455 24.2672 4.5 21.2829 4.5 18C4.5 11.1655 10.5442 5.625 18 5.625C25.4558 5.625 31.5 11.1655 31.5 18Z" stroke="#CACAD6" stroke-width="1.5" stroke-linecap="round" stroke-linejoin="round"/>
</svg>
