<svg width="64" height="64" viewBox="0 0 64 64" fill="none" xmlns="http://www.w3.org/2000/svg">
<path d="M35.8125 26.3125C34.3687 26.3125 33.25 27.4312 33.25 28.8125C33.25 30.1938 34.3687 31.3125 35.8125 31.3125C37.1313 31.3125 38.25 30.1938 38.25 28.8125C38.25 27.4312 37.1313 26.3125 35.8125 26.3125ZM18.3125 26.3125C16.8687 26.3125 15.75 27.4312 15.75 28.8125C15.75 30.1938 16.8687 31.3125 18.3125 31.3125C19.6313 31.3125 20.75 30.1938 20.75 28.8125C20.75 27.4312 19.6313 26.3125 18.3125 26.3125Z" fill="white"/>
<path d="M55.8749 21.5624C52.8686 17.4374 48.6686 14.6811 44.0624 13.4374V13.4436C42.9936 12.2561 41.7874 11.1624 40.4374 10.1874C30.2061 2.74987 15.8436 5.01862 8.3749 15.2499C2.35615 23.5624 2.6124 34.7436 8.7499 42.6874L8.7999 50.9749C8.7999 51.1749 8.83115 51.3749 8.89365 51.5624C9.2249 52.6186 10.3499 53.1999 11.3999 52.8686L19.3124 50.3749C21.4061 51.1186 23.5686 51.5436 25.7186 51.6624L25.6874 51.6874C31.2561 55.7436 38.5561 56.9624 45.2499 54.7499L53.1936 57.3374C53.3936 57.3999 53.5999 57.4374 53.8124 57.4374C54.9186 57.4374 55.8124 56.5436 55.8124 55.4374V47.0624C61.3186 39.5874 61.4624 29.2561 55.8749 21.5624ZM20.1874 45.9374L19.4374 45.6249L13.2499 47.5624L13.1874 41.0624L12.6874 40.4999C7.3999 34.0499 7.0499 24.7561 11.9999 17.9374C18.0249 9.67487 29.5749 7.84987 37.8124 13.8124C46.0749 19.8186 47.9061 31.3499 41.9374 39.5624C36.9311 46.4311 27.9686 48.9686 20.1874 45.9374ZM51.7499 44.8749L51.2499 45.4999L51.3124 51.9999L45.1874 49.9374L44.4374 50.2499C40.9374 51.5499 37.2061 51.6561 33.7499 50.6874L33.7374 50.6811C38.3561 49.2624 42.5436 46.3874 45.5624 42.2499C50.3374 35.6686 51.1124 27.3999 48.3374 20.3499L48.3749 20.3749C49.8124 21.4061 51.1311 22.6936 52.2499 24.2499C56.7874 30.4749 56.5311 38.9499 51.7499 44.8749Z" fill="white"/>
<path d="M27.0625 26.3125C25.6187 26.3125 24.5 27.4312 24.5 28.8125C24.5 30.1938 25.6187 31.3125 27.0625 31.3125C28.3813 31.3125 29.5 30.1938 29.5 28.8125C29.5 27.4312 28.3813 26.3125 27.0625 26.3125Z" fill="white"/>
</svg>
