<svg width="25" height="25" viewBox="0 0 25 25" fill="none" xmlns="http://www.w3.org/2000/svg">
<rect width="25" height="25" rx="12.5" fill="#3D3D3D"/>
<path d="M18.0607 6.93934C17.4749 6.35355 16.5251 6.35355 15.9393 6.93934L15.2781 7.60057L17.3994 9.72189L18.0607 9.06066C18.6464 8.47487 18.6464 7.52513 18.0607 6.93934Z" fill="white"/>
<path d="M16.7933 10.328L14.672 8.20666L7.72869 15.15C7.37624 15.5024 7.11716 15.9372 6.97486 16.4149L6.51785 17.9491C6.47292 18.0999 6.51426 18.2632 6.62554 18.3745C6.73681 18.4857 6.90012 18.5271 7.05093 18.4822L8.58515 18.0251C9.06285 17.8828 9.49757 17.6238 9.85002 17.2713L16.7933 10.328Z" fill="white"/>
</svg>
