<svg width="24" height="24" viewBox="0 0 24 24" fill="none" xmlns="http://www.w3.org/2000/svg">
<path d="M3 19V5C3 4.45 3.19583 3.97917 3.5875 3.5875C3.97917 3.19583 4.45 3 5 3H19C19.55 3 20.0208 3.19583 20.4125 3.5875C20.8042 3.97917 21 4.45 21 5V19C21 19.55 20.8042 20.0208 20.4125 20.4125C20.0208 20.8042 19.55 21 19 21H5C4.45 21 3.97917 20.8042 3.5875 20.4125C3.19583 20.0208 3 19.55 3 19ZM5 9H19V5H5V9ZM10.325 14H13.675V11H10.325V14ZM10.325 19H13.675V16H10.325V19ZM5 14H8.325V11H5V14ZM15.675 14H19V11H15.675V14ZM5 19H8.325V16H5V19ZM15.675 19H19V16H15.675V19Z" fill="white"/>
</svg>
