<svg width="36" height="36" viewBox="0 0 36 36" fill="none" xmlns="http://www.w3.org/2000/svg">
<path d="M3.0524 18.4836C2.94878 18.1727 2.94868 17.8361 3.05212 17.5251C5.13466 11.2646 11.0403 6.75 18.0003 6.75C24.9571 6.75 30.8604 11.2604 32.9456 17.5164C33.0492 17.8273 33.0493 18.1639 32.9458 18.4749C30.8633 24.7354 24.9577 29.25 17.9977 29.25C11.0409 29.25 5.13753 24.7396 3.0524 18.4836Z" stroke="#CACAD6" stroke-width="1.5" stroke-linecap="round" stroke-linejoin="round"/>
<path d="M22.4991 18C22.4991 20.4853 20.4844 22.5 17.9991 22.5C15.5138 22.5 13.4991 20.4853 13.4991 18C13.4991 15.5147 15.5138 13.5 17.9991 13.5C20.4844 13.5 22.4991 15.5147 22.4991 18Z" stroke="#CACAD6" stroke-width="1.5" stroke-linecap="round" stroke-linejoin="round"/>
</svg>
