<svg width="40.5" height="40.5" xmlns="http://www.w3.org/2000/svg">

 <g>
  <title>Layer 1</title>
  <g id="svg_5">
   <path id="svg_1" d="m39.95715,16.46762l-1.611,0l0,-0.083l-18,0l0,8l11.303,0c-1.649,4.657 -6.08,8 -11.303,8c-6.627,0 -12,-5.373 -12,-12s5.373,-12 12,-12c3.059,0 5.842,1.154 7.961,3.039l5.657,-5.657c-3.572,-3.329 -8.35,-5.382 -13.618,-5.382c-11.045,0 -20,8.955 -20,20s8.955,20 20,20s20,-8.955 20,-20c0,-1.341 -0.138,-2.65 -0.389,-3.917z" fill="#FFC107"/>
   <path id="svg_2" d="m2.65215,11.07562l6.571,4.819c1.778,-4.402 6.084,-7.51 11.123,-7.51c3.059,0 5.842,1.154 7.961,3.039l5.657,-5.657c-3.572,-3.329 -8.35,-5.382 -13.618,-5.382c-7.682,0 -14.344,4.337 -17.694,10.691z" fill="#FF3D00"/>
   <path id="svg_3" d="m20.34615,40.38462c5.166,0 9.86,-1.977 13.409,-5.192l-6.19,-5.238a11.91,11.91 0 0 1 -7.219,2.43c-5.202,0 -9.619,-3.317 -11.283,-7.946l-6.522,5.025c3.31,6.477 10.032,10.921 17.805,10.921z" fill="#4CAF50"/>
   <path id="svg_4" d="m40.14946,16.46762l-1.611,0l0,-0.083l-18,0l0,8l11.303,0a12.04,12.04 0 0 1 -4.087,5.571l0.003,-0.002l6.19,5.238c-0.438,0.398 6.591,-4.807 6.591,-14.807c0,-1.341 -0.138,-2.65 -0.389,-3.917z" fill="#1976D2"/>
  </g>
 </g>
</svg>