<svg width="18" height="19" viewBox="0 0 18 19" fill="none" xmlns="http://www.w3.org/2000/svg">
<path d="M14.3833 15.5522C13.1508 13.9257 11.1981 12.8749 8.9999 12.8749C6.80175 12.8749 4.849 13.9257 3.61652 15.5522M14.3833 15.5522C16.0501 14.0686 17.0999 11.9069 17.0999 9.4999C17.0999 5.0264 13.4734 1.3999 8.9999 1.3999C4.5264 1.3999 0.899902 5.0264 0.899902 9.4999C0.899902 11.9069 1.94975 14.0686 3.61652 15.5522M14.3833 15.5522C12.9523 16.826 11.0665 17.5999 8.9999 17.5999C6.93336 17.5999 5.04756 16.826 3.61652 15.5522M11.6999 7.4749C11.6999 8.96607 10.4911 10.1749 8.9999 10.1749C7.50874 10.1749 6.2999 8.96607 6.2999 7.4749C6.2999 5.98374 7.50874 4.7749 8.9999 4.7749C10.4911 4.7749 11.6999 5.98374 11.6999 7.4749Z" stroke="#222222" stroke-width="1.5" stroke-linecap="round" stroke-linejoin="round"/>
</svg>
