<svg width="38" height="38" viewBox="0 0 38 38" fill="none" xmlns="http://www.w3.org/2000/svg">
<path fill-rule="evenodd" clip-rule="evenodd" d="M0 19C0 8.50658 8.50658 0 19 0C29.4935 0 38 8.50658 38 19C38 29.4935 29.4935 38 19 38C8.50658 38 0 29.4935 0 19ZM26.0355 15.4649C26.5047 14.8081 26.3525 13.8953 25.6956 13.4261C25.0389 12.9569 24.1261 13.109 23.6569 13.7659L17.352 22.5927L14.1873 19.4281C13.6166 18.8573 12.6911 18.8573 12.1204 19.4281C11.5496 19.9989 11.5496 20.9242 12.1204 21.4949L16.505 25.8796C16.8088 26.1834 17.2309 26.3381 17.659 26.3026C18.0872 26.2674 18.4781 26.0452 18.7278 25.6956L26.0355 15.4649Z" fill="#CCCCCC"/>
</svg>
