<svg width="22" height="17" viewBox="0 0 22 17" fill="none" xmlns="http://www.w3.org/2000/svg">
<path d="M11 11.5C12.6569 11.5 14 10.1569 14 8.5C14 6.84315 12.6569 5.5 11 5.5C9.34315 5.5 8 6.84315 8 8.5C8 10.1569 9.34315 11.5 11 11.5Z" fill="#4C4C4D"/>
<path fill-rule="evenodd" clip-rule="evenodd" d="M0.323411 7.9467C1.81066 3.47571 6.02791 0.25 11.0005 0.25C15.9708 0.25 20.1864 3.47271 21.6755 7.94045C21.7959 8.30152 21.796 8.69217 21.6759 9.05331C20.1886 13.5243 15.9714 16.75 10.9988 16.75C6.02847 16.75 1.81284 13.5273 0.323739 9.05955C0.203397 8.69849 0.203283 8.30783 0.323411 7.9467ZM16.25 8.5C16.25 11.3995 13.8995 13.75 11 13.75C8.1005 13.75 5.75 11.3995 5.75 8.5C5.75 5.6005 8.1005 3.25 11 3.25C13.8995 3.25 16.25 5.6005 16.25 8.5Z" fill="#4C4C4D"/>
</svg>
