<svg width="18" height="19" viewBox="0 0 18 19" fill="none" xmlns="http://www.w3.org/2000/svg">
<path d="M6.25 10.1875L8.3125 12.25L11.75 7.4375M17.25 9.5C17.25 10.6626 16.6729 11.6904 15.7894 12.3125C15.9741 13.3769 15.6554 14.5116 14.8334 15.3336C14.0115 16.1556 12.8768 16.4742 11.8123 16.2896C11.1902 17.1729 10.1625 17.75 9 17.75C7.83753 17.75 6.80983 17.173 6.18771 16.2897C5.1231 16.4745 3.98818 16.1559 3.16606 15.3338C2.34396 14.5117 2.02531 13.3768 2.21012 12.3122C1.32696 11.69 0.75 10.6624 0.75 9.5C0.75 8.33755 1.327 7.30987 2.21023 6.68774C2.02552 5.62323 2.34418 4.48843 3.16621 3.6664C3.98826 2.84435 5.12308 2.52569 6.18761 2.71042C6.80973 1.82709 7.83747 1.25 9 1.25C10.1625 1.25 11.1902 1.82704 11.8123 2.71031C12.8769 2.52549 14.0118 2.84413 14.8339 3.66624C15.656 4.48834 15.9747 5.62324 15.7899 6.68783C16.673 7.30996 17.25 8.3376 17.25 9.5Z" stroke="#1CCA00" stroke-width="1.5" stroke-linecap="round" stroke-linejoin="round"/>
</svg>
