<svg width="25" height="25" viewBox="0 0 25 25" fill="none" xmlns="http://www.w3.org/2000/svg">
<path d="M9.99365 4.10422C10.0878 3.53916 10.5767 3.125 11.1496 3.125H13.8516C14.4245 3.125 14.9134 3.53916 15.0076 4.10422L15.23 5.43864C15.2949 5.82827 15.5553 6.15283 15.9009 6.34412C15.9781 6.38689 16.0545 6.43108 16.13 6.47664C16.4686 6.68108 16.8804 6.74465 17.2507 6.60589L18.5183 6.13102C19.0548 5.93005 19.6579 6.14636 19.9443 6.64247L21.2953 8.98251C21.5818 9.47862 21.4675 10.1091 21.0253 10.4732L19.9791 11.3345C19.6744 11.5853 19.5233 11.9726 19.5306 12.3672C19.5314 12.4114 19.5319 12.4556 19.5319 12.5C19.5319 12.5444 19.5314 12.5886 19.5306 12.6328C19.5233 13.0274 19.6744 13.4147 19.9791 13.6655L21.0253 14.5268C21.4675 14.8909 21.5818 15.5214 21.2953 16.0175L19.9443 18.3575C19.6579 18.8536 19.0548 19.0699 18.5183 18.869L17.2507 18.3941C16.8804 18.2553 16.4686 18.3189 16.13 18.5234C16.0545 18.5689 15.9782 18.6131 15.9009 18.6559C15.5553 18.8472 15.2949 19.1717 15.23 19.5614L15.0076 20.8958C14.9134 21.4608 14.4245 21.875 13.8516 21.875H11.1496C10.5767 21.875 10.0878 21.4608 9.99365 20.8958L9.77125 19.5614C9.70631 19.1717 9.44592 18.8472 9.10033 18.6559C9.02307 18.6131 8.94669 18.5689 8.87124 18.5234C8.53267 18.3189 8.12086 18.2554 7.75048 18.3941L6.48291 18.869C5.94646 19.07 5.34335 18.8536 5.05692 18.3575L3.70589 16.0175C3.41947 15.5214 3.53369 14.8909 3.97596 14.5268L5.02216 13.6655C5.32685 13.4147 5.47789 13.0274 5.47059 12.6328C5.46977 12.5886 5.46936 12.5444 5.46936 12.5C5.46936 12.4556 5.46977 12.4114 5.47059 12.3672C5.47789 11.9726 5.32685 11.5853 5.02216 11.3345L3.97596 10.4732C3.53369 10.1091 3.41947 9.47864 3.70589 8.98253L5.05692 6.64249C5.34335 6.14638 5.94646 5.93006 6.48291 6.13103L7.75047 6.6059C8.12085 6.74466 8.53265 6.68109 8.87123 6.47664C8.94668 6.43108 9.02306 6.3869 9.10033 6.34412C9.44592 6.15283 9.70631 5.82827 9.77125 5.43864L9.99365 4.10422Z" stroke="#1A1A1A" stroke-width="1.5" stroke-linecap="round" stroke-linejoin="round"/>
<path d="M15.6254 12.4999C15.6254 14.2258 14.2263 15.6249 12.5004 15.6249C10.7745 15.6249 9.37537 14.2258 9.37537 12.4999C9.37537 10.774 10.7745 9.37492 12.5004 9.37492C14.2263 9.37492 15.6254 10.774 15.6254 12.4999Z" stroke="#1A1A1A" stroke-width="1.5" stroke-linecap="round" stroke-linejoin="round"/>
</svg>
