<svg width="26" height="25" viewBox="0 0 26 25" fill="none" xmlns="http://www.w3.org/2000/svg">
<path d="M10.4936 4.10422C10.5878 3.53916 11.0767 3.125 11.6496 3.125H14.3516C14.9245 3.125 15.4134 3.53916 15.5076 4.10422L15.73 5.43864C15.7949 5.82827 16.0553 6.15283 16.4009 6.34412C16.4781 6.38689 16.5545 6.43108 16.63 6.47664C16.9686 6.68108 17.3804 6.74465 17.7507 6.60589L19.0183 6.13102C19.5548 5.93005 20.1579 6.14636 20.4443 6.64247L21.7953 8.98251C22.0818 9.47862 21.9675 10.1091 21.5253 10.4732L20.4791 11.3345C20.1744 11.5853 20.0233 11.9726 20.0306 12.3672C20.0314 12.4114 20.0319 12.4556 20.0319 12.5C20.0319 12.5444 20.0314 12.5886 20.0306 12.6328C20.0233 13.0274 20.1744 13.4147 20.4791 13.6655L21.5253 14.5268C21.9675 14.8909 22.0818 15.5214 21.7953 16.0175L20.4443 18.3575C20.1579 18.8536 19.5548 19.0699 19.0183 18.869L17.7507 18.3941C17.3804 18.2553 16.9686 18.3189 16.63 18.5234C16.5545 18.5689 16.4782 18.6131 16.4009 18.6559C16.0553 18.8472 15.7949 19.1717 15.73 19.5614L15.5076 20.8958C15.4134 21.4608 14.9245 21.875 14.3516 21.875H11.6496C11.0767 21.875 10.5878 21.4608 10.4936 20.8958L10.2712 19.5614C10.2063 19.1717 9.94592 18.8472 9.60033 18.6559C9.52307 18.6131 9.44669 18.5689 9.37124 18.5234C9.03267 18.3189 8.62086 18.2554 8.25048 18.3941L6.98291 18.869C6.44646 19.07 5.84335 18.8536 5.55692 18.3575L4.20589 16.0175C3.91947 15.5214 4.03369 14.8909 4.47596 14.5268L5.52216 13.6655C5.82685 13.4147 5.97789 13.0274 5.97059 12.6328C5.96977 12.5886 5.96936 12.5444 5.96936 12.5C5.96936 12.4556 5.96977 12.4114 5.97059 12.3672C5.97789 11.9726 5.82685 11.5853 5.52216 11.3345L4.47596 10.4732C4.03369 10.1091 3.91947 9.47864 4.20589 8.98253L5.55692 6.64249C5.84335 6.14638 6.44646 5.93006 6.98291 6.13103L8.25047 6.6059C8.62085 6.74466 9.03265 6.68109 9.37123 6.47664C9.44668 6.43108 9.52306 6.3869 9.60033 6.34412C9.94592 6.15283 10.2063 5.82827 10.2712 5.43864L10.4936 4.10422Z" stroke="white" stroke-width="1.5" stroke-linecap="round" stroke-linejoin="round"/>
<path d="M16.1255 12.5C16.1255 14.2259 14.7264 15.625 13.0005 15.625C11.2746 15.625 9.87549 14.2259 9.87549 12.5C9.87549 10.7741 11.2746 9.375 13.0005 9.375C14.7264 9.375 16.1255 10.7741 16.1255 12.5Z" stroke="white" stroke-width="1.5" stroke-linecap="round" stroke-linejoin="round"/>
</svg>
