<svg width="30" height="31" viewBox="0 0 30 31" fill="none" xmlns="http://www.w3.org/2000/svg">
<g id="heroicons-solid/share">
<path id="Vector (Stroke)" fill-rule="evenodd" clip-rule="evenodd" d="M19.6875 6.125C19.6875 4.05393 21.3664 2.375 23.4375 2.375C25.5086 2.375 27.1875 4.05393 27.1875 6.125C27.1875 8.19607 25.5086 9.875 23.4375 9.875C22.3667 9.875 21.4014 9.42593 20.7189 8.70779L10.1924 14.5558C10.2708 14.8579 10.3125 15.1744 10.3125 15.5C10.3125 15.8256 10.2708 16.1421 10.1924 16.4442L20.7189 22.2922C21.4014 21.5741 22.3667 21.125 23.4375 21.125C25.5086 21.125 27.1875 22.8039 27.1875 24.875C27.1875 26.9461 25.5086 28.625 23.4375 28.625C21.3664 28.625 19.6875 26.9461 19.6875 24.875C19.6875 24.5494 19.7292 24.2329 19.8076 23.9308L9.2811 18.0828C8.59856 18.8009 7.63334 19.25 6.5625 19.25C4.49143 19.25 2.8125 17.5711 2.8125 15.5C2.8125 13.4289 4.49143 11.75 6.5625 11.75C7.63334 11.75 8.59856 12.1991 9.2811 12.9172L19.8076 7.06915C19.7292 6.76708 19.6875 6.45057 19.6875 6.125Z" fill="white"/>
</g>
</svg>
