<svg width="32" height="33" viewBox="0 0 32 33" fill="none" xmlns="http://www.w3.org/2000/svg">
<g id="heroicons-solid/sun">
<g id="Union">
<path d="M16 3.5C16.5523 3.5 17 3.94772 17 4.5V7.5C17 8.05228 16.5523 8.5 16 8.5C15.4477 8.5 15 8.05228 15 7.5V4.5C15 3.94772 15.4477 3.5 16 3.5Z" fill="white"/>
<path d="M10 16.5C10 13.1863 12.6863 10.5 16 10.5C19.3137 10.5 22 13.1863 22 16.5C22 19.8137 19.3137 22.5 16 22.5C12.6863 22.5 10 19.8137 10 16.5Z" fill="white"/>
<path d="M25.1925 8.72178C25.583 8.33126 25.583 7.69809 25.1925 7.30757C24.8019 6.91705 24.1688 6.91705 23.7782 7.30757L21.6569 9.42889C21.2664 9.81942 21.2664 10.4526 21.6569 10.8431C22.0474 11.2336 22.6806 11.2336 23.0711 10.8431L25.1925 8.72178Z" fill="white"/>
<path d="M29 16.5C29 17.0523 28.5523 17.5 28 17.5H25C24.4477 17.5 24 17.0523 24 16.5C24 15.9477 24.4477 15.5 25 15.5H28C28.5523 15.5 29 15.9477 29 16.5Z" fill="white"/>
<path d="M23.7781 25.6923C24.1686 26.0829 24.8018 26.0829 25.1923 25.6923C25.5828 25.3018 25.5828 24.6686 25.1923 24.2781L23.071 22.1568C22.6805 21.7663 22.0473 21.7663 21.6568 22.1568C21.2662 22.5473 21.2662 23.1805 21.6568 23.571L23.7781 25.6923Z" fill="white"/>
<path d="M16 24.5C16.5523 24.5 17 24.9477 17 25.5V28.5C17 29.0523 16.5523 29.5 16 29.5C15.4477 29.5 15 29.0523 15 28.5V25.5C15 24.9477 15.4477 24.5 16 24.5Z" fill="white"/>
<path d="M10.3433 23.571C10.7339 23.1805 10.7339 22.5473 10.3433 22.1568C9.95281 21.7663 9.31965 21.7663 8.92912 22.1568L6.8078 24.2781C6.41728 24.6687 6.41728 25.3018 6.8078 25.6923C7.19833 26.0829 7.83149 26.0829 8.22202 25.6923L10.3433 23.571Z" fill="white"/>
<path d="M8 16.5C8 17.0523 7.55228 17.5 7 17.5H4C3.44772 17.5 3 17.0523 3 16.5C3 15.9477 3.44772 15.5 4 15.5H7C7.55228 15.5 8 15.9477 8 16.5Z" fill="white"/>
<path d="M8.92897 10.8431C9.3195 11.2336 9.95266 11.2336 10.3432 10.8431C10.7337 10.4526 10.7337 9.8194 10.3432 9.42888L8.22187 7.30756C7.83134 6.91703 7.19818 6.91703 6.80765 7.30756C6.41713 7.69808 6.41713 8.33125 6.80765 8.72177L8.92897 10.8431Z" fill="white"/>
</g>
</g>
</svg>
