<svg width="64" height="64" viewBox="0 0 64 64" fill="none" xmlns="http://www.w3.org/2000/svg">
<path d="M47.9999 56.0003H18.6666V21.3337L37.3333 2.66699L40.6666 6.00033C40.9777 6.31144 41.2337 6.73366 41.4346 7.26699C41.6355 7.80033 41.735 8.31144 41.7333 8.80033V9.73366L38.7999 21.3337H55.9999C57.4221 21.3337 58.6666 21.867 59.7333 22.9337C60.7999 24.0003 61.3333 25.2448 61.3333 26.667V32.0003C61.3333 32.3114 61.2888 32.6448 61.1999 33.0003C61.111 33.3559 61.0221 33.6892 60.9333 34.0003L52.9333 52.8003C52.5333 53.6892 51.8666 54.4448 50.9333 55.067C49.9999 55.6892 49.0221 56.0003 47.9999 56.0003ZM23.9999 50.667H47.9999L55.9999 32.0003V26.667H31.9999L35.5999 12.0003L23.9999 23.6003V50.667ZM18.6666 21.3337V26.667H10.6666V50.667H18.6666V56.0003H5.33325V21.3337H18.6666Z" fill="white"/>
</svg>
