<svg width="38" height="38" viewBox="0 0 38 38" fill="none" xmlns="http://www.w3.org/2000/svg">
<g clip-path="url(#clip0_593_1803)">
<path fill-rule="evenodd" clip-rule="evenodd" d="M31.7024 32.4845C35.2871 29.1063 37.5251 24.3145 37.5251 19C37.5251 8.76889 29.2312 0.474976 19.0001 0.474976C8.76902 0.474976 0.475098 8.76889 0.475098 19C0.475098 24.3145 2.71301 29.1063 6.29789 32.4845C9.61433 35.6096 14.0835 37.525 19.0001 37.525C23.9167 37.525 28.3859 35.6096 31.7024 32.4845ZM7.87583 30.0433C10.4874 26.7858 14.5002 24.7 19.0001 24.7C23.5001 24.7 27.5129 26.7858 30.1244 30.0433C27.2847 32.9038 23.3492 34.675 19.0001 34.675C14.651 34.675 10.7156 32.9038 7.87583 30.0433ZM26.1251 13.3C26.1251 17.235 22.9352 20.425 19.0001 20.425C15.0651 20.425 11.8751 17.235 11.8751 13.3C11.8751 9.36494 15.0651 6.17498 19.0001 6.17498C22.9352 6.17498 26.1251 9.36494 26.1251 13.3Z" fill="#C6C6C6"/>
</g>
<defs>
<clipPath id="clip0_593_1803">
<rect width="38" height="38" fill="white"/>
</clipPath>
</defs>
</svg>
