<svg width="38" height="39" viewBox="0 0 38 39" fill="none" xmlns="http://www.w3.org/2000/svg">
<path fill-rule="evenodd" clip-rule="evenodd" d="M31.7024 32.9846C35.2871 29.6064 37.5251 24.8146 37.5251 19.5001C37.5251 9.26902 29.2312 0.975098 19.0001 0.975098C8.76902 0.975098 0.475098 9.26902 0.475098 19.5001C0.475098 24.8146 2.71301 29.6064 6.29789 32.9846C9.61433 36.1097 14.0835 38.0251 19.0001 38.0251C23.9167 38.0251 28.3859 36.1097 31.7024 32.9846ZM7.87583 30.5435C10.4874 27.2859 14.5002 25.2001 19.0001 25.2001C23.5001 25.2001 27.5129 27.2859 30.1244 30.5435C27.2847 33.4039 23.3492 35.1751 19.0001 35.1751C14.651 35.1751 10.7156 33.4039 7.87583 30.5435ZM26.1251 13.8001C26.1251 17.7351 22.9352 20.9251 19.0001 20.9251C15.0651 20.9251 11.8751 17.7351 11.8751 13.8001C11.8751 9.86506 15.0651 6.6751 19.0001 6.6751C22.9352 6.6751 26.1251 9.86506 26.1251 13.8001Z" fill="black" fill-opacity="0.2"/>
</svg>
